HIERARCHY
ROOT Hips
{
	OFFSET -131.695496 91.669037 -190.067505
	CHANNELS 6 Xposition Yposition Zposition Zrotation Yrotation Xrotation 
	JOINT LeftUpLeg
	{
		OFFSET 0.103456 1.857829 10.548507
		CHANNELS 3 Zrotation Yrotation Xrotation
		JOINT LeftLeg
		{
			OFFSET 43.500000 -0.000031 0.000008
			CHANNELS 3 Zrotation Yrotation Xrotation
			JOINT LeftFoot
			{
				OFFSET 42.372200 0.000015 -0.000002
				CHANNELS 3 Zrotation Yrotation Xrotation
				JOINT LeftToe
				{
					OFFSET 17.299992 -0.000004 0.000000
					CHANNELS 3 Zrotation Yrotation Xrotation
					End Site
					{
						OFFSET 0.000000 0.000000 0.000000
					}
				}
			}
		}
	}
	JOINT RightUpLeg
	{
		OFFSET 0.103460 1.857824 -10.548508
		CHANNELS 3 Zrotation Yrotation Xrotation
		JOINT RightLeg
		{
			OFFSET 43.500042 -0.000019 0.000004
			CHANNELS 3 Zrotation Yrotation Xrotation
			JOINT RightFoot
			{
				OFFSET 42.372265 -0.000019 0.000016
				CHANNELS 3 Zrotation Yrotation Xrotation
				JOINT RightToe
				{
					OFFSET 17.299999 -0.000001 -0.000006
					CHANNELS 3 Zrotation Yrotation Xrotation
					End Site
					{
						OFFSET 0.000000 0.000000 0.000000
					}
				}
			}
		}
	}
	JOINT Spine
	{
		OFFSET 6.901965 -2.603734 0.000001
		CHANNELS 3 Zrotation Yrotation Xrotation
		JOINT Spine1
		{
			OFFSET 12.588102 0.000006 -0.000006
			CHANNELS 3 Zrotation Yrotation Xrotation
			JOINT Spine2
			{
				OFFSET 12.343201 -0.000002 0.000010
				CHANNELS 3 Zrotation Yrotation Xrotation
				JOINT Neck
				{
					OFFSET 25.832899 -0.000004 -0.000009
					CHANNELS 3 Zrotation Yrotation Xrotation
					JOINT Head
					{
						OFFSET 11.766603 0.000001 0.000007
						CHANNELS 3 Zrotation Yrotation Xrotation
						End Site
						{
							OFFSET 0.000000 0.000000 0.000000
						}
					}
				}
				JOINT LeftShoulder
				{
					OFFSET 19.745899 -1.480371 6.000098
					CHANNELS 3 Zrotation Yrotation Xrotation
					JOINT LeftArm
					{
						OFFSET 11.284129 -0.000011 -0.000015
						CHANNELS 3 Zrotation Yrotation Xrotation
						JOINT LeftForeArm
						{
							OFFSET 33.000046 0.000011 0.000030
							CHANNELS 3 Zrotation Yrotation Xrotation
							JOINT LeftHand
							{
								OFFSET 25.200010 0.000012 -0.000000
								CHANNELS 3 Zrotation Yrotation Xrotation
								End Site
								{
									OFFSET 0.000000 0.000000 0.000000
								}
							}
						}
					}
				}
				JOINT RightShoulder
				{
					OFFSET 19.746092 -1.480375 -6.000075
					CHANNELS 3 Zrotation Yrotation Xrotation
					JOINT RightArm
					{
						OFFSET 11.284135 -0.000010 -0.000014
						CHANNELS 3 Zrotation Yrotation Xrotation
						JOINT RightForeArm
						{
							OFFSET 33.000092 0.000016 0.000013
							CHANNELS 3 Zrotation Yrotation Xrotation
							JOINT RightHand
							{
								OFFSET 25.199780 0.000135 0.000426
								CHANNELS 3 Zrotation Yrotation Xrotation
								End Site
								{
									OFFSET 0.000000 0.000000 0.000000
								}
							}
						}
					}
				}
			}
		}
	}
}
MOTION
Frames: 11
Frame Time: 0.033333
-68.782562 83.421432 -377.961609 82.781961 -1.052999 91.530880 149.294302 -2.069198 169.637133 -59.682063 -3.344422 1.532813 84.165081 2.155118 14.760350 21.454551 0.003092 -0.000001 163.088689 12.873002 156.170896 -36.993165 4.064489 -2.697284 76.974545 5.419417 12.879116 21.454560 -0.003102 -0.000019 10.892617 1.133673 -1.691497 11.740347 2.433158 -3.259725 11.422509 2.413580 -3.274341 7.434798 -1.372972 -5.550998 -8.899855 15.011275 -10.180749 135.790363 -84.172335 42.905001 -66.428303 46.310032 -12.739670 -108.149010 -2.074617 3.252801 -10.948099 -2.161233 46.108951 -169.045051 70.136180 12.649048 36.301052 -41.369308 -87.061867 -47.118927 14.515306 -1.657233 -5.389924 18.941978 -20.759499 
-71.899490 79.402267 -376.206787 82.492122 1.189346 93.953009 149.517144 -2.050601 169.614238 -67.332462 0.183258 -0.413298 98.423996 1.259090 12.222951 21.454550 0.003092 0.000001 165.367554 13.820606 167.317177 -43.423993 1.953643 -7.706027 95.280087 7.135159 15.741501 21.454557 -0.003109 -0.000018 10.551562 0.873175 -1.609758 11.065885 1.896274 -3.128875 10.748109 1.877494 -3.140258 9.233441 -0.833471 -5.849815 -10.895818 14.937706 -10.712103 155.476634 -81.559733 23.229962 -60.199102 52.601715 -10.211139 -104.611505 -2.410844 3.121766 -10.550930 -1.701260 44.446312 -164.599008 68.171394 17.249998 32.455987 -46.897056 -82.655930 -42.274011 15.575417 -1.584971 -2.748346 18.346218 -15.559251 
-74.291786 77.077881 -374.912201 80.989187 1.842204 94.077093 146.899611 -3.439502 174.800264 -74.814429 -0.313859 -1.789325 101.098097 1.706538 9.220956 21.454557 0.003108 -0.000001 164.280407 11.417504 170.818209 -49.777097 0.676871 -9.305513 102.578397 7.144533 14.983673 21.454558 -0.003106 -0.000018 10.177021 0.816291 -1.072648 10.326773 1.724997 -2.068311 10.008733 1.712613 -2.078682 7.475487 0.366282 -6.337741 -9.349930 13.329432 -10.375997 168.119041 -79.651815 10.509016 -49.878109 56.725247 -4.191048 -100.416813 -3.256800 2.995734 -5.725576 0.930619 49.170129 -161.522950 66.403318 20.454943 24.932946 -53.313728 -67.613197 -38.162951 15.902315 -1.496974 1.721943 19.952533 -7.255307 
-75.331711 77.710701 -373.650787 81.127648 3.389046 91.968026 149.468281 -3.880700 175.918817 -74.562266 -0.603894 -2.869507 98.804779 2.431314 6.961464 21.454553 0.003103 -0.000001 164.658102 10.420506 166.860756 -51.779975 3.353613 -8.701815 98.947202 6.977804 12.542122 21.454560 -0.003108 -0.000017 10.328831 0.546862 -0.526630 10.640361 1.139786 -1.000732 10.322250 1.133847 -1.007584 5.867477 0.988593 -6.620538 -7.037012 11.951686 -9.883980 173.624310 -77.429101 4.979994 -33.318913 56.880221 6.441573 -95.449244 -3.980858 2.825652 -1.918052 1.735221 55.861768 -162.279052 66.975025 19.663946 15.351487 -56.511308 -49.316626 -42.098598 15.840262 -1.597428 6.897502 22.853424 2.152156 
-75.085587 81.154617 -372.944092 81.359041 3.088054 89.335808 154.575227 -2.591298 176.370019 -65.524750 -0.183952 -4.553825 96.672763 3.501852 5.094068 21.454551 0.003094 0.000000 164.798340 10.455298 168.881290 -47.967466 2.250576 -9.797576 85.949509 8.536179 8.296875 21.454558 -0.003105 -0.000020 10.104536 0.484775 -0.199581 10.195071 0.985178 -0.355680 9.876928 0.983147 -0.361616 7.637836 0.159558 -6.141378 -5.114234 11.487767 -9.171110 -175.550191 -77.240150 -6.051987 -20.828377 55.063708 17.877851 -88.832983 -5.700793 2.652121 -2.731128 -1.865518 53.155681 -163.703010 70.268856 18.156989 5.960858 -55.966891 -39.192947 -51.077961 17.711469 -1.996743 4.241429 21.288373 -1.528966 
-74.521973 85.491142 -372.670288 81.718357 1.498315 86.271792 159.273154 -1.075801 177.740251 -53.519955 -0.283910 -6.600243 90.852246 4.940285 3.365181 21.454551 0.003100 -0.000001 162.181599 10.502405 170.496357 -45.224841 2.256128 -10.915117 69.956758 9.283013 3.884265 21.454558 -0.003109 -0.000017 9.621309 0.491926 0.214747 9.232074 0.965102 0.468053 8.913937 0.968040 0.462229 10.417120 -0.266552 -5.610498 -1.640906 9.875329 -7.947704 -167.855109 -77.915540 -13.900018 -11.435117 51.496949 29.002373 -81.729108 -8.119154 2.509387 -3.823037 -4.467064 46.026169 -164.839977 73.043477 16.964966 -1.283060 -51.140307 -30.558512 -61.945868 16.959686 -2.339128 -3.252143 17.275927 -15.130469 
-73.821312 89.893280 -372.514893 80.925352 -0.367781 83.777584 162.402624 -2.027695 -179.980266 -43.072542 -1.731858 -7.452585 79.986877 5.770857 2.273058 21.454551 0.003085 0.000000 158.531505 8.916310 175.096052 -44.995504 0.966014 -9.414958 64.278821 8.513989 3.848078 21.454553 -0.003121 -0.000016 9.196810 0.759177 0.519027 8.388524 1.478692 1.091753 8.070375 1.485407 1.082801 14.485219 -0.700550 -4.844668 -1.382469 8.661686 -6.922783 -163.189899 -78.859117 -18.644997 -3.964558 45.986834 38.715513 -76.184367 -9.609487 2.375272 -4.754650 -6.557725 44.675646 -164.911953 76.387504 16.869051 -8.146617 -45.187247 -21.989500 -71.581844 14.084728 -2.529317 -6.394824 13.166341 -22.409596 
-73.025177 93.215782 -372.360291 80.967173 -1.566737 82.318171 163.901905 -3.328597 178.788343 -38.576529 -1.379733 -2.463703 73.356546 0.582483 -3.927778 21.454550 0.003089 -0.000001 155.266428 8.016483 -179.822488 -44.993144 0.684674 -2.653165 68.562402 4.320084 6.646511 21.454558 -0.003110 -0.000016 9.108760 0.806613 0.488173 8.212553 1.576507 1.032378 7.894376 1.582858 1.022837 17.243029 -1.263815 -4.104174 -2.956941 7.692135 -6.085029 -159.566688 -80.331303 -22.307997 1.920746 38.734570 46.580961 -72.484925 -10.419505 2.276536 -5.674403 -5.412402 46.571542 -169.331058 79.633995 12.355955 -13.837745 -37.162899 -13.353917 -79.647744 10.199225 -2.602916 -6.938431 11.948114 -21.210271 
-72.015739 95.320900 -372.086609 81.882289 -1.856193 80.808405 164.317399 -2.952609 -179.624153 -42.051173 -1.731413 5.711888 76.620488 -6.113305 -7.333616 21.454557 0.003094 0.000002 152.217869 8.192306 -174.099200 -44.050745 0.650573 3.283528 71.613079 -0.488000 5.842792 21.454560 -0.003102 -0.000017 9.258275 0.601941 0.566062 8.510094 1.160586 1.174863 8.192009 1.167809 1.167834 18.885750 -2.539093 -3.611477 -4.390750 7.954717 -5.747316 -161.241505 -82.897371 -20.577041 6.030320 31.395159 54.087343 -69.284995 -10.819190 2.173269 -5.629231 -3.693035 46.699865 -165.322051 82.997474 16.409056 -19.066219 -28.091472 -4.908437 -85.410409 6.816158 -2.619397 -7.015310 12.194480 -14.684280 
-71.115723 96.224342 -371.858612 82.570082 -1.858631 78.348390 164.909713 -2.310806 -177.843414 -49.254646 -1.574235 9.425701 78.713402 -8.445458 -6.667915 21.454553 0.003091 -0.000005 149.183462 7.466096 -168.332116 -42.006896 0.109637 6.169541 74.066906 -2.670483 5.868618 21.454558 -0.003098 -0.000017 9.348580 0.427412 0.909939 8.690889 0.785272 1.849390 8.372934 0.796566 1.844620 20.707078 -4.782362 -3.374200 -5.088608 8.718136 -5.694543 178.929236 -86.040719 -0.587077 9.690868 25.126031 63.094303 -65.790438 -10.946621 2.043010 -5.518075 -2.211031 46.058213 -143.539007 86.378848 38.288944 -23.173659 -17.711737 1.992932 -87.789104 5.236302 -2.614459 -7.033506 12.897723 -7.556190 
-70.350258 96.144058 -371.507507 83.129467 -1.427478 75.021794 167.454983 -2.206200 -176.184484 -55.252914 -2.062006 8.051869 78.837493 -7.427156 -6.623753 21.454555 0.003093 -0.000005 146.976805 5.929997 -164.294340 -39.122856 0.904592 5.863426 75.207104 -2.263912 6.803603 21.454555 -0.003108 -0.000018 9.504429 0.193308 1.309370 8.999299 0.284194 2.629753 8.681567 0.300209 2.628001 22.052741 -6.937380 -2.963563 -5.432922 8.831634 -5.223452 142.896163 -87.671147 35.527017 11.907978 20.175634 72.103548 -60.921729 -10.961658 1.858222 -6.819181 -0.144236 47.684751 -99.128263 88.167517 82.728166 -25.848629 -5.881198 6.507948 -86.590249 6.479398 -2.648120 -7.738288 13.732292 -3.897988 
